<svg width="46" height="35" viewBox="0 0 46 35" fill="none" xmlns="http://www.w3.org/2000/svg">
<path d="M43.9338 1.62083C43.2884 1.18566 42.5314 0.870485 41.7171 0.697797C40.9027 0.525108 40.0509 0.499168 39.2227 0.621829L27.3777 2.35312C25.6827 2.59894 24.1403 3.29746 23 4.3357C21.8606 3.29575 20.3181 2.59556 18.6223 2.3485L6.77733 0.617204C5.94889 0.496201 5.09752 0.523019 4.28338 0.695763C3.46923 0.868506 2.71219 1.18296 2.06575 1.6169C1.4193 2.05085 0.899228 2.59369 0.542276 3.20707C0.185324 3.82045 0.000204595 4.48941 0 5.16666L0 31.1191L23 34.4845L46 31.1191V5.16666C46.0001 4.4899 45.815 3.82142 45.4579 3.20863C45.1009 2.59584 44.5805 2.05376 43.9338 1.62083ZM21.0833 31.0667L3.83333 28.5476V5.16666C3.83357 4.94095 3.89543 4.71802 4.01453 4.51365C4.13363 4.30927 4.30708 4.12842 4.52261 3.98388C4.73814 3.83933 4.99051 3.73462 5.26188 3.67714C5.53324 3.61965 5.81699 3.6108 6.09308 3.6512L17.9362 5.3825C18.8194 5.51175 19.6182 5.88625 20.1934 6.44071C20.7685 6.99516 21.0835 7.6944 21.0833 8.4165V31.0667ZM42.1667 28.5445L24.9167 31.0667V8.4165C24.9165 7.6944 25.2315 6.99516 25.8066 6.44071C26.3818 5.88625 27.1806 5.51175 28.0638 5.3825L39.9069 3.6512C40.183 3.6108 40.4668 3.61965 40.7381 3.67714C41.0095 3.73462 41.2619 3.83933 41.4774 3.98388C41.6929 4.12842 41.8664 4.30927 41.9855 4.51365C42.1046 4.71802 42.1664 4.94095 42.1667 5.16666V28.5445Z" fill="#F1F4FF"/>
</svg>
