<svg width="48" height="48" viewBox="0 0 48 48" fill="none" xmlns="http://www.w3.org/2000/svg">
<g clip-path="url(#clip0_2_149)">
<path d="M0 0H48V48H0" fill="white"/>
<path d="M31.0312 29.25H26.8125V41.8125C31.2866 41.1047 35.3293 38.7361 38.1341 35.1793C40.9389 31.6224 42.2996 27.1388 41.9446 22.623C41.5896 18.1072 39.5451 13.8913 36.219 10.8164C32.8929 7.74142 28.5297 6.03358 24 6.03358C19.4703 6.03358 15.1071 7.74142 11.7809 10.8164C8.45481 13.8913 6.4103 18.1072 6.05533 22.623C5.70035 27.1388 7.06101 31.6224 9.86583 35.1793C12.6706 38.7361 16.7134 41.1047 21.1875 41.8125V29.25H16.5937V24H21.1875V19.7813C21.4375 14.2188 25.0625 12.0938 32.0625 13.4063V17.8125H29.625C27.8125 17.875 26.875 18.8125 26.8125 20.625V24H31.8281" fill="#1877F2"/>
</g>
<defs>
<clipPath id="clip0_2_149">
<rect width="48" height="48" fill="white"/>
</clipPath>
</defs>
</svg>
