<svg width="24" height="25" viewBox="0 0 24 25" fill="none" xmlns="http://www.w3.org/2000/svg">
<g clip-path="url(#clip0_2_131)">
<rect width="24" height="23.5932" transform="translate(0 0.711868)" fill="white"/>
<path d="M23.8208 11.7034C22.8547 9.64359 21.4396 7.81788 19.6758 6.35557L22.7078 3.37496L21.2928 1.98296L17.9998 5.21719C16.1772 4.18078 14.1053 3.64342 11.9998 3.66102C4.49981 3.66102 1.05681 9.8159 0.17881 11.7034C0.0609485 11.9563 -6.10352e-05 12.2312 -6.10352e-05 12.5095C-6.10352e-05 12.7877 0.0609485 13.0626 0.17881 13.3156C1.14495 15.3753 2.56003 17.2011 4.32381 18.6634L1.29281 21.644L2.70681 23.034L5.99981 19.7998C7.82245 20.8362 9.8943 21.3735 11.9998 21.3559C19.4998 21.3559 22.9428 15.2011 23.8208 13.3136C23.9384 13.0609 23.9993 12.7863 23.9993 12.5085C23.9993 12.2306 23.9384 11.956 23.8208 11.7034ZM5.99981 12.5085C5.99792 11.4258 6.29973 10.3635 6.87207 9.43841C7.44441 8.51335 8.26512 7.76132 9.24398 7.265C10.2228 6.76868 11.322 6.54727 12.4205 6.62512C13.519 6.70297 14.5745 7.07706 15.4708 7.70628L14.0188 9.13367C13.4093 8.7723 12.7116 8.5797 11.9998 8.57628C10.9389 8.57628 9.92153 8.99056 9.17138 9.72799C8.42124 10.4654 7.99981 11.4656 7.99981 12.5085C8.00329 13.2082 8.19921 13.894 8.56681 14.4933L7.11481 15.9207C6.38978 14.9256 5.99987 13.7324 5.99981 12.5085ZM11.9998 18.4068C10.7548 18.4067 9.54098 18.0234 8.52881 17.3107L9.98081 15.8833C10.5904 16.2447 11.288 16.4373 11.9998 16.4407C13.0607 16.4407 14.0781 16.0264 14.8282 15.289C15.5784 14.5515 15.9998 13.5514 15.9998 12.5085C15.9963 11.8087 15.8004 11.1229 15.4328 10.5237L16.8848 9.09631C17.5249 9.97744 17.9054 11.015 17.9846 12.0949C18.0638 13.1749 17.8386 14.2553 17.3337 15.2176C16.8288 16.1799 16.0638 16.9867 15.1228 17.5493C14.1818 18.112 13.1012 18.4086 11.9998 18.4068Z" fill="#79747E"/>
</g>
<defs>
<clipPath id="clip0_2_131">
<rect width="24" height="23.5932" fill="white" transform="translate(0 0.711868)"/>
</clipPath>
</defs>
</svg>
