<svg width="48" height="48" viewBox="0 0 48 48" fill="none" xmlns="http://www.w3.org/2000/svg">
<path d="M36.4327 38C40.8729 34.0112 42.8463 27.3631 41.6623 21H24V28.0279H34.0645C33.6699 30.3073 32.2884 32.2067 30.315 33.4413L36.4327 38Z" fill="#4285F4"/>
<path d="M7 32.452C8.28884 34.8064 10.1372 36.8588 12.4058 38.4544C14.6743 40.0501 17.3039 41.1473 20.0962 41.6635C22.8885 42.1796 25.7708 42.1012 28.5257 41.4341C31.2806 40.767 33.8362 39.5287 36 37.8125L29.9257 33.4514C24.7331 36.6313 16.1115 35.4502 13.1723 28L7 32.452Z" fill="#34A853"/>
<path d="M13 28.1287C12.2286 25.6433 12.2286 23.3567 13 20.8713L6.92485 16C4.70694 20.5731 4.03192 27.0351 6.92485 33L13 28.1287Z" fill="#FBBC02"/>
<path d="M13.3636 21C15.5859 14.7203 25.0808 11.0799 31.4444 16.4495L37 11.5349C29.1212 4.70915 13.7677 4.98218 7 16.5405L13.3636 21Z" fill="#EA4335"/>
</svg>
