<svg width="48" height="48" viewBox="0 0 48 48" fill="none" xmlns="http://www.w3.org/2000/svg">
<path d="M48 0H0V48H48V0Z" fill="white"/>
<path d="M38.0043 18.6157C37.8235 18.7241 33.8462 20.9746 33.8913 25.6564C33.9413 31.2564 38.9426 33.1212 39 33.1424C38.9552 33.2757 38.2004 35.7985 36.3637 38.4039C34.7765 40.661 33.1322 42.9053 30.5371 42.9522C27.9875 42.9976 27.1658 41.482 24.2532 41.482C21.3388 41.482 20.4266 42.9053 18.0156 42.9976C15.5107 43.0897 13.6037 40.5602 12.0047 38.3154C8.73593 33.7216 6.23671 25.333 9.59258 19.6719C11.2586 16.8604 14.2365 15.0792 17.4675 15.0332C19.9282 14.988 22.2488 16.6408 23.754 16.6408C25.2376 16.6408 27.8967 14.714 31.031 14.9394C32.2594 15.0279 35.7466 15.3842 38.0043 18.6157ZM29.097 11.9068C30.4282 10.3433 31.3238 8.16581 31.0772 6C29.1613 6.07384 26.8441 7.24028 25.47 8.80283C24.2394 10.187 23.1586 12.4039 23.4521 14.5255C25.5875 14.6859 27.767 13.4714 29.097 11.9068Z" fill="#1D1D1F"/>
</svg>
